<svg height="200px" width="200px" viewBox="0 0 408.788 408.788" xmlns="http://www.w3.org/2000/svg">
	<rect width="408.788" height="408.788" rx="55" fill="#475993"/>
	<path fill="#FFFFFF" d="M266.893 408.786V262.708h50.453c4.537 0 8.358-3.395 8.892-7.901l5.581-47.087
		c.632-5.326-3.529-10.009-8.892-10.009h-56.285v-39.389
		c0-17.863 4.96-30.035 30.575-30.035l23.719-.011
		c4.943-.003 8.95-4.011 8.95-8.955V79.617
		c0-4.946-4.01-8.955-8.955-8.955h-38.65
		c-47.101 0-79.348 28.75-79.348 81.55v45.498h-37.882
		c-4.959 0-8.974 4.03-8.955 8.989l.182 47.087
		c.019 4.932 4.022 8.92 8.954 8.92h37.951l-.251 146.078z"/>
</svg>