<svg width="150" height="150" viewBox="0 0 120 120" fill="none" xmlns="http://www.w3.org/2000/svg">
    <circle cx="60" cy="60" r="50" fill="" filter="url(#shadow)"/>
    <defs>
        <filter id="shadow" x="-20%" y="-20%" width="200%" height="200%">
            <feDropShadow dx="0" dy="2" stdDeviation="4" flood-color="#00000015"/>
        </filter>
    </defs>
    <g transform="translate(10, 7) scale(8.3)" color="#FFD700">
        <path d="M6 4C5.33696 4 4.70107 4.26339 4.23223 4.73223C3.76339 5.20107 3.5 5.83696 3.5 6.5C3.5 7.16304 3.76339 7.79893 4.23223 8.26777C4.70107 8.73661 5.33696 9 6 9C6.66304 9 7.29893 8.73661 7.76777 8.26777C8.23661 7.79893 8.5 7.16304 8.5 6.5C8.5 5.83696 8.23661 5.20107 7.76777 4.73223C7.29893 4.26339 6.66304 4 6 4Z" fill="currentColor"/>
        <path d="M9.89998 6.49997H10.7978M8.69998 9.19997L8.99998 9.49997M5.99998 10.4L6.00106 11.2989M1.19997 6.49997H2.09781M2.99997 3.49997L3.30004 3.80003M5.99998 1.69996L6.00106 2.59888M3.29997 9.19997L2.99997 9.49997M8.69998 3.79997L8.99998 3.49997" stroke="currentColor" stroke-width="0.8" stroke-linecap="round"/>
    </g>
</svg>